<svg width="27" height="27" viewBox="0 0 27 27" fill="none" xmlns="http://www.w3.org/2000/svg">
<g id="Logo Icon">
<path id="Exclude" fill-rule="evenodd" clip-rule="evenodd" d="M10.0912 0.0429688C9.63241 0.0429688 9.26046 0.414916 9.26046 0.873737V8.76604H9.26043C4.44281 8.76604 0.537354 12.6715 0.537354 17.4891C0.537354 22.3067 4.44281 26.2122 9.26043 26.2122H17.1527C17.6116 26.2122 17.9835 25.8402 17.9835 25.3814V17.4891H17.9835C22.8012 17.4891 26.7066 13.5837 26.7066 8.76604C26.7066 3.94842 22.8012 0.0429688 17.9835 0.0429688H10.0912ZM17.9835 17.4891V9.5968C17.9835 9.13798 17.6116 8.76604 17.1527 8.76604H9.26046V16.6583C9.26046 17.1172 9.63241 17.4891 10.0912 17.4891H17.9835Z" fill="#4338CA"/>
<path id="Exclude_2" d="M9.99762 0.0429688C9.5905 0.0429688 9.26046 0.373007 9.26046 0.780129L9.26047 8.76604H17.2464C17.6535 8.76604 17.9835 9.09608 17.9835 9.5032L17.9835 17.4891C22.8012 17.4891 26.7066 13.5837 26.7066 8.76604C26.7066 3.94842 22.8012 0.0429688 17.9835 0.0429688H9.99762Z" fill="#00C2FF"/>
</g>
</svg>
