<?xml version="1.0" encoding="UTF-8"?>
<svg id="Layer_1" data-name="Layer 1" xmlns="http://www.w3.org/2000/svg" viewBox="0 0 250.46 125.23">
  <defs>
    <style>
      .cls-1 {
        fill: #cb3cff;
      }

      .cls-1, .cls-2, .cls-3, .cls-4 {
        stroke-width: 0px;
      }

      .cls-2 {
        fill: #00c2ff;
      }

      .cls-3 {
        fill: #0b1739;
      }

      .cls-4 {
        fill: #0038ff;
      }
    </style>
  </defs>
  <path class="cls-3" d="M125.23.8c0-.44.36-.8.8-.8,16.17.1,32.18,3.34,47.12,9.53,15.19,6.29,29,15.52,40.63,27.15,11.63,11.63,20.85,25.43,27.15,40.63,6.19,14.95,9.43,30.95,9.53,47.12,0,.44-.36.8-.8.8h-10.92c-.44,0-.8-.36-.8-.8-.1-14.53-3.01-28.9-8.58-42.33-5.66-13.67-13.97-26.1-24.43-36.57-10.47-10.47-22.89-18.77-36.57-24.43-13.43-5.56-27.8-8.47-42.33-8.58-.44,0-.8-.36-.8-.8V.8Z"/>
  <path class="cls-2" d="M157.44,5.04c.11-.43.55-.68.98-.56,22.41,6.16,42.67,18.44,58.51,35.46,15.84,17.03,26.62,38.12,31.14,60.92.09.43-.2.85-.63.94l-10.73,2.06c-.43.08-.85-.2-.94-.64-4.08-20.49-13.78-39.45-28.01-54.75-14.24-15.3-32.44-26.34-52.58-31.89-.43-.12-.68-.56-.57-.98l2.83-10.55Z"/>
  <path class="cls-4" d="M157.44,5.04c.11-.43.55-.68.98-.56,31.49,8.65,58.36,29.27,74.87,57.45.22.38.09.87-.29,1.09l-9.46,5.46c-.38.22-.87.09-1.1-.29-14.85-25.3-38.98-43.82-67.26-51.61-.43-.12-.68-.56-.57-.98l2.83-10.55Z"/>
  <path class="cls-1" d="M.8,125.23C.36,125.23,0,124.87,0,124.43c.12-18.94,4.53-37.6,12.91-54.59,8.5-17.23,20.84-32.27,36.08-43.97,15.24-11.69,32.97-19.73,51.81-23.47,18.58-3.7,37.75-3.13,56.07,1.66.43.11.68.55.57.98l-2.83,10.55c-.11.43-.55.68-.98.57-16.47-4.29-33.69-4.79-50.39-1.47-16.96,3.37-32.91,10.6-46.62,21.13-13.72,10.52-24.83,24.06-32.47,39.57-7.53,15.27-11.5,32.04-11.62,49.05,0,.44-.36.8-.8.8H.8Z"/>
</svg>